<svg width="12" height="12" viewBox="0 0 12 12" fill="none" xmlns="http://www.w3.org/2000/svg">
<path fill-rule="evenodd" clip-rule="evenodd" d="M5.00029 11.0001C4.99958 11.5524 5.44719 12 6.00017 12C6.27595 12 6.52627 11.8883 6.70729 11.7073C6.88761 11.527 6.99934 11.2766 7.00005 11.0001V6.99993H11.0001C11.553 6.99993 12.0007 6.55232 11.9999 6.00005C11.9999 5.44707 11.5523 4.99945 11.0001 5.00016H7.00005V0.999885C7.00005 0.446908 6.55243 -0.000706313 6.00017 8.36723e-07C5.44719 8.36723e-07 4.99958 0.447615 5.00029 0.999885V5.00016H0.999879C0.447613 4.99945 0 5.44707 0 6.00005C0 6.27583 0.111728 6.52615 0.292752 6.70718C0.473069 6.8875 0.723392 6.99923 0.999879 6.99993H5.00029V11.0001Z" fill="#464646"/>
</svg>
